<?xml version="1.0" standalone="no"?>
<!DOCTYPE svg PUBLIC "-//W3C//DTD SVG 20010904//EN"
 "http://www.w3.org/TR/2001/REC-SVG-20010904/DTD/svg10.dtd">
<svg version="1.0" xmlns="http://www.w3.org/2000/svg"
 width="290.000000pt" height="290.000000pt" viewBox="0 0 290.000000 290.000000"
 preserveAspectRatio="xMidYMid meet">
<metadata>
Created by potrace 1.14, written by Peter Selinger 2001-2017
</metadata>
<g transform="translate(0.000000,290.000000) scale(0.100000,-0.100000)"
fill="#000000" stroke="none">
<path d="M1298 2885 c-2 -2 -26 -6 -53 -10 -27 -3 -53 -9 -57 -13 -4 -4 -14
-34 -22 -67 -12 -52 -68 -259 -94 -349 -8 -28 -12 -22 -98 127 -123 216 -103
198 -176 158 -83 -45 -177 -105 -178 -113 0 -3 43 -80 95 -170 52 -89 95 -166
95 -170 0 -4 -21 -1 -47 7 -27 8 -102 28 -168 45 -66 17 -142 38 -170 46 l-50
15 -29 -33 c-62 -72 -150 -221 -201 -341 l-28 -68 157 -157 157 -157 -190 -3
c-152 -2 -190 -5 -194 -17 -3 -7 -5 -71 -4 -142 l2 -128 165 -2 c91 -1 178 -2
195 -2 28 -1 20 -11 -129 -160 l-158 -159 12 -38 c19 -56 55 -134 97 -206 37
-65 131 -198 146 -209 9 -6 78 10 330 79 59 16 107 27 107 25 0 -3 -16 -32
-36 -66 -20 -34 -46 -78 -57 -97 -10 -19 -37 -66 -59 -103 -23 -37 -39 -69
-37 -71 45 -36 221 -136 238 -136 6 0 29 33 52 73 135 233 153 262 157 242 7
-36 110 -416 114 -420 14 -14 202 -27 323 -21 169 8 203 13 209 35 2 9 28 105
57 214 29 108 56 194 60 190 4 -5 16 -24 27 -43 50 -91 154 -266 161 -273 10
-10 82 25 182 87 65 41 67 43 55 67 -7 13 -49 88 -94 165 -45 78 -82 144 -82
146 0 3 33 -3 73 -14 39 -11 137 -37 216 -58 l143 -38 24 26 c70 78 182 269
234 400 l13 34 -164 164 -164 164 50 1 c28 0 118 1 201 1 l152 1 1 127 c1 69
-1 134 -5 143 -5 15 -27 17 -202 17 l-197 0 163 163 163 163 -30 70 c-51 119
-101 205 -179 309 -25 33 -46 61 -47 63 -1 1 -103 -25 -226 -57 -122 -33 -224
-59 -225 -58 -1 1 43 79 97 172 l99 170 -26 22 c-15 12 -39 27 -53 35 -14 7
-46 24 -71 38 -25 14 -57 31 -72 37 l-27 12 -97 -169 c-54 -93 -100 -167 -103
-164 -3 2 -6 10 -8 17 -8 42 -110 408 -114 411 -12 13 -138 24 -261 24 -75 0
-138 -2 -140 -3z m172 -260 c12 -44 32 -120 45 -170 13 -49 42 -157 63 -238
l40 -149 -57 -96 c-31 -54 -70 -121 -86 -149 -15 -29 -31 -53 -34 -53 -3 0
-23 30 -43 68 -73 130 -100 177 -114 199 -16 26 -14 42 22 168 14 50 27 97 29
105 5 22 95 362 101 383 8 26 10 22 34 -68z m1040 -530 c0 -3 -103 -109 -230
-235 l-230 -230 -175 0 c-96 0 -175 2 -175 5 0 20 167 289 184 296 12 5 57 18
101 30 44 11 154 41 245 65 182 50 194 53 230 60 13 3 27 7 29 10 6 6 21 5 21
-1z m-1952 -51 c75 -20 157 -42 182 -49 25 -8 99 -28 165 -45 96 -25 122 -36
131 -53 19 -40 67 -122 85 -149 11 -14 19 -30 19 -35 0 -4 11 -25 25 -46 l26
-37 -174 0 -174 0 -224 226 c-258 260 -239 239 -216 231 10 -4 80 -23 155 -43z
m628 -707 c3 -3 -33 -73 -81 -155 -97 -170 -71 -150 -270 -202 -161 -42 -447
-119 -462 -125 -7 -2 -13 -3 -13 -1 0 2 110 113 243 247 l244 244 167 -1 c92
-1 169 -4 172 -7z m1109 -240 c135 -135 245 -248 245 -251 0 -4 -98 21 -461
117 -228 61 -199 40 -300 216 -49 85 -89 155 -89 157 0 7 47 9 197 8 l163 -2
245 -245z m-784 -24 c34 -60 73 -128 87 -153 l24 -46 -50 -184 c-27 -102 -67
-249 -87 -327 -21 -79 -40 -141 -42 -139 -6 6 -173 637 -173 654 0 19 161 302
171 302 4 0 35 -48 70 -107z"/>
</g>
</svg>
